<svg viewBox="0 0 22 22" xmlns="http://www.w3.org/2000/svg" xmlns:xlink="http://www.w3.org/1999/xlink"><path fill="currentColor" d="M 2 10C 2 12.757 4 15 7 15L 7 17C 3 17 0 13.866 0 10C 0 6.13403 3.13403 3 7 3L 7.02502 3.00098C 8.58398 1.16699 10.9041 0 13.5 0C 18.194 0 22 3.80603 22 8.5C 22 12.681 18.9771 16.141 15 16.85L 15 14.812C 17.8621 14.1331 20 11.567 20 8.5C 20 4.91602 17.084 2 13.5 2C 11.959 2 10.543 2.54199 9.42798 3.44104C 8.85205 3.90503 8.36206 4.46704 7.97205 5.09802C 7.65698 5.03601 7.33301 5 7 5C 6.53406 5 6.09094 5.08496 5.66296 5.20496C 3.55798 5.79395 2 7.70898 2 10ZM 13.6 12L 12 10.6053L 12 22L 10 22L 10 10.6053L 8.40002 12L 7 10.6595L 11 7L 15 10.6595L 13.6 12Z"></path></svg>